/* XPM */
static char * bottom_left_inactive_xpm[] = {
"7 107 3 1",
" 	c None",
".	c #00FF00",
"+	c #008C00",
".+.    ",
".+.    ",
".+.    ",
".+.    ",
" ..    ",
"  .    ",
"  ..   ",
"   ..  ",
"    ...",
"     ..",
"     ..",
"     ..",
"     ..",
"     ..",
"     ..",
"     ..",
"     ..",
"     ..",
"     ..",
"     ..",
"     ..",
"     ..",
"     ..",
"     ..",
"     ..",
"     ..",
"     ..",
"     ..",
"     ..",
"     ..",
"     ..",
"     ..",
"     ..",
"     ..",
"     ..",
"     ..",
"     ..",
"     ..",
"     ..",
"     ..",
"     ..",
"     ..",
"     ..",
"     ..",
"     ..",
"     ..",
"     ..",
"     ..",
"     ..",
"     ..",
"     ..",
"     ..",
"     ..",
"     ..",
"     ..",
"     ..",
"     ..",
"     ..",
"     ..",
"     ..",
"     ..",
"     ..",
"     ..",
"     ..",
"     ..",
"     ..",
"     ..",
"     ..",
"     ..",
"     ..",
"     ..",
"     ..",
"     ..",
"     ..",
"     ..",
"     ..",
"     ..",
"     ..",
"     ..",
"     ..",
"     ..",
"     ..",
"     ..",
"     ..",
"     ..",
"     ..",
"     ..",
"     ..",
"     ..",
"     ..",
"     ..",
"     ..",
"     ..",
"     ..",
"     ..",
"     ..",
"     ..",
"     ..",
"     ..",
"     ..",
"     ..",
"     ..",
"     ..",
"     ..",
"     ..",
"     ..",
"     .."};
