/* XPM */
static char * bottom_active_xpm[] = {
"2 7 3 1",
" 	c None",
".	c #00FF00",
"+	c #1D252D",
"  ",
"  ",
"  ",
"  ",
"..",
"++",
".."};
