/* XPM */
static char * left_inactive_xpm[] = {
"7 2 3 1",
" 	c None",
".	c #00FF00",
"+	c #008C00",
".+.    ",
".+.    "};
