/* XPM */
static char * title_2_active_xpm[] = {
"3 20 3 1",
" 	c None",
".	c #00FF00",
"+	c #004900",
"...",
"+++",
"+++",
"+++",
"+++",
"+++",
"+++",
"+++",
"+++",
"+++",
"+++",
"+++",
"+++",
"+++",
"+++",
"+++",
"...",
"   ",
"   ",
"   "};
