/* XPM */
static char * title_5_active_xpm[] = {
"3 20 3 1",
" 	c None",
".	c #00FF00",
"+	c #008C00",
"   ",
"   ",
"   ",
"   ",
"   ",
"   ",
"   ",
"   ",
"   ",
"   ",
"   ",
"   ",
"   ",
"   ",
"...",
"+++",
"...",
"   ",
"   ",
"   "};
