/* XPM */
static char * title_4_inactive_xpm[] = {
"50 20 4 1",
" 	c None",
".	c #00FF00",
"+	c #004900",
"@	c #008C00",
".....   .....                                     ",
"+++++.   .@@@.                                    ",
"++++++.   .@@@.                                   ",
"+++++++.   .@@@.                                  ",
"++++++++.   .@@@.                                 ",
"+++++++++.   .@@@.                                ",
"++++++++++.   .@@@.                               ",
"+++++++++++.   .@@@. .....  ....  ....  ....      ",
"+++++++++++.   .@@@. .@@@@.  .@@.  .@@.  .@@.     ",
"+++++++++++.   .@@@. ....@@.  .@@.  .@@.  .@@.    ",
"++++++++++.   .@@@.      .@@.  .@@.  .@@.  .@@.   ",
"+++++++++.   .@@@.        .@@.  .@@.  .@@.  .@@.  ",
"++++++++.   .@@@.          .@@.  ....  ....  .... ",
"+++++++.   .@@@.            .@@.                  ",
"++++++.   .@@@.              .@@..................",
"+++++.   .@@@.                .@@@@@@@@@@@@@@@@@@@",
".....   .....                  ...................",
"                                                  ",
"                                                  ",
"                                                  "};
