/* XPM */
static char * top_left_inactive_xpm[] = {
"34 20 4 1",
" 	c None",
".	c #00FF00",
"+	c #008C00",
"@	c #004900",
"                     .....   .....",
"                    .+++.   .@@@@@",
"                   .+++.   .@@@@@@",
"                  .+++.   .@@@@@@@",
"                 .+++.   .@@@@@@@@",
"                .+++.   .@@@@@@@@@",
"               .+++.   .@@@@@@@@@@",
"............. .+++.   .@@@@@@@@@@@",
".+++++++++++. .+++.   .@@@@@@@@@@@",
".+........... .+++.   .@@@@@@@@@@@",
".+.            .+++.   .@@@@@@@@@@",
".+.             .+++.   .@@@@@@@@@",
".+.              .+++.   .@@@@@@@@",
".+.               .+++.   .@@@@@@@",
".+.                .+++.   .@@@@@@",
".+.                 .+++.   .@@@@@",
".+.                  .....   .....",
".+.                               ",
".+.                               ",
".+.                               "};
