/* XPM */
static char * top_right_active_xpm[] = {
"7 20 2 1",
" 	c None",
".	c #00FF00",
"       ",
"       ",
"       ",
"       ",
"       ",
"       ",
"       ",
"       ",
"       ",
"       ",
"       ",
"       ",
"       ",
"       ",
"       ",
"..     ",
"..     ",
"..     ",
"..     ",
"..     "};
