/* XPM */
static char * top_right_inactive_xpm[] = {
"7 20 2 1",
" 	c None",
".	c #00FF00",
"       ",
"       ",
"       ",
"       ",
"       ",
"       ",
"       ",
"       ",
"       ",
"       ",
"       ",
"       ",
"       ",
"       ",
"       ",
"..     ",
"..     ",
"..     ",
"..     ",
"..     "};
