/* XPM */
static char * close_pressed_xpm[] = {
"13 19 3 1",
" 	c None",
".	c #000000",
"+	c #FF0101",
"             ",
"             ",
".............",
".............",
".............",
"..+.....+....",
"...+...+.....",
"....+.+......",
".....+.......",
"....+.+......",
"...+...+.....",
"..+.....+....",
".............",
".............",
".............",
".............",
".............",
".............",
"............."};
